<svg width="92" height="53" viewBox="0 0 92 53" fill="none" xmlns="http://www.w3.org/2000/svg">
<path fill-rule="evenodd" clip-rule="evenodd" d="M49.5925 18.246C49.5925 18.246 49.5836 18.2381 49.5777 18.2322C49.5817 18.2352 49.5856 18.2391 49.5925 18.246ZM33.3487 17.4883L34.789 17.3582C35.2452 17.3168 35.5525 16.9926 35.5525 16.5531V8.69558C35.5525 8.32802 35.6974 7.9723 35.9742 7.65106C36.252 7.34657 36.5969 7.17413 36.9998 7.13767L38.9367 6.96227C39.3248 6.92679 39.6578 7.0411 39.9366 7.31307C40.2174 7.57025 40.3583 7.88952 40.3583 8.26003V16.1176C40.3583 16.558 40.6657 16.8261 41.1228 16.7847L42.5878 16.6517C42.6607 16.6448 42.7306 16.6221 42.7967 16.5876C43.2331 16.3551 43.3257 16.0584 43.3257 15.8495V7.992C43.3257 7.62248 43.4705 7.26675 43.7474 6.94749C44.0252 6.643 44.37 6.47055 44.7729 6.43409L46.7088 6.25869C47.1009 6.22322 47.4369 6.33753 47.7344 6.60752C48.0152 6.86471 48.1561 7.18398 48.1561 7.55449V15.412C48.1561 15.8515 48.4635 16.1205 48.9196 16.0791L50.359 15.9491C50.8151 15.9077 51.1225 15.5835 51.1225 15.144V7.28646C51.1225 6.1168 50.6752 5.1925 49.8004 4.54509C48.9541 3.89276 47.9127 3.61981 46.7079 3.7282L44.772 3.9036C43.6301 4.00707 42.6469 4.41699 41.841 5.12549C41.0391 4.56283 40.0628 4.32929 38.9357 4.43177L36.9988 4.60717C35.8048 4.71556 34.7585 5.17673 33.8817 5.98574C33.0334 6.78982 32.5852 7.81956 32.5852 8.96459V16.8221C32.5852 17.2626 32.8916 17.5306 33.3477 17.4892L33.3487 17.4883ZM27.1883 3.43357L29.5971 3.21579C30.0532 3.17441 30.3606 2.8512 30.3606 2.41073V1.30708C30.3606 0.95234 30.1242 0.616321 29.5971 0.664605L27.1883 0.882377C26.6612 0.929676 26.4258 1.30905 26.4258 1.66281V2.76645C26.4258 3.20692 26.7321 3.47495 27.1883 3.43357ZM36.452 27.4319L40.5169 27.0959L38.4658 21.6535L36.452 27.4319ZM67.9574 16.6191C67.9348 16.6191 67.9239 16.6182 67.921 16.6182C67.9259 16.6182 67.9426 16.6182 67.9574 16.6191ZM72.2006 12.8756C73.0459 13.525 74.0853 13.7999 75.2922 13.6905C76.963 13.5398 78.228 13.2619 79.1689 12.8451C79.494 12.6973 79.6812 12.4233 79.6812 12.0942V11.1453C79.6812 10.5245 79.1649 10.3796 78.7985 10.5038C77.9118 10.7974 76.767 11.0044 75.2931 11.1374C74.8902 11.1738 74.5454 11.0645 74.2676 10.8083C73.9888 10.5511 73.8459 10.2259 73.8459 9.83962V5.24768C73.8459 4.86337 73.9878 4.5106 74.2666 4.20513C74.5464 3.89867 74.8912 3.72623 75.2931 3.68977C76.765 3.55674 77.9433 3.55674 78.7935 3.68878C79.2112 3.75579 79.6822 3.50451 79.6822 2.88864V1.93872C79.6822 1.62635 79.5147 1.39084 79.1915 1.27851C78.2576 1.03117 76.9827 0.984859 75.2941 1.13759C74.0892 1.24697 73.04 1.71898 72.178 2.53883C71.3297 3.34291 70.8815 4.37363 70.8815 5.51571V10.1076C70.8815 11.2694 71.3258 12.1987 72.2036 12.8737L72.2006 12.8756ZM52.6022 4.13714C52.7737 4.04353 52.9155 3.91542 53.0288 3.77057L55.942 6.77208L54.2042 7.36037C54.149 7.19186 54.0495 7.04011 53.9027 6.92679C53.4722 6.5957 52.8269 6.70114 52.4564 7.16329C52.087 7.62544 52.1343 8.26792 52.5638 8.59901C52.9924 8.9301 53.6406 8.82269 54.0091 8.36153C54.1116 8.2354 54.1786 8.09547 54.217 7.95062L55.9608 8.76258C55.9608 8.79707 55.9558 8.83058 55.9558 8.86506C55.9558 12.5958 58.9814 15.347 62.7142 15.009C66.4471 14.671 69.4736 11.3719 69.4736 7.6412C69.4736 3.9105 66.4471 1.15927 62.7142 1.49726C61.3153 1.62438 60.0148 2.16635 58.937 2.99211L57.4642 1.97222C57.5725 1.80274 57.6435 1.60664 57.6533 1.39774C57.6819 0.794677 57.2179 0.324644 56.6149 0.348293C56.014 0.374899 55.5017 0.886319 55.4731 1.49037C55.4445 2.09343 55.9085 2.56346 56.5105 2.53686C56.675 2.53094 56.8317 2.48463 56.9745 2.41368L57.2967 4.43473L53.3145 3.08375C53.3411 2.86204 53.3116 2.63638 53.2131 2.43043C52.9264 1.83131 52.1865 1.62438 51.5609 1.9673C50.9363 2.31021 50.6624 3.07488 50.9491 3.674C51.2358 4.27312 51.9767 4.48006 52.6003 4.13615L52.6022 4.13714ZM64.2147 10.555C64.7102 10.5097 65.1102 10.8763 65.1102 11.3699C65.1102 11.8636 64.7102 12.3021 64.2147 12.3475C63.7191 12.3918 63.3191 12.0272 63.3191 11.5325C63.3191 11.0379 63.7191 10.6003 64.2147 10.556V10.555ZM61.0975 10.8368C61.5941 10.7915 61.9941 11.1581 61.9941 11.6518C61.9941 12.1454 61.5931 12.5839 61.0975 12.6293C60.602 12.6746 60.202 12.309 60.202 11.8144C60.202 11.3197 60.602 10.8822 61.0975 10.8378V10.8368ZM49.626 18.2746C49.759 18.3997 49.8949 18.5643 50.0339 18.7693C50.1728 18.9742 50.3166 19.1881 50.4654 19.4108L55.7647 26.9875V18.8993C55.7647 18.3741 55.877 17.9701 56.1036 17.6883C56.1095 17.6814 56.1164 17.6745 56.1223 17.6676L49.5915 18.245C49.6033 18.2549 49.6152 18.2638 49.626 18.2736V18.2746ZM65.9092 18.8974L64.0905 19.0472V28.2764L66.1792 28.1039C66.6373 28.0665 66.9959 28.0241 67.256 27.9778C67.5161 27.9315 67.785 27.8477 68.0638 27.7255C68.3426 27.6033 68.584 27.4447 68.7879 27.2486C69.7101 26.3933 70.1711 25.0137 70.1711 23.109C70.1711 21.7668 69.9682 20.7785 69.5633 20.1449C69.1574 19.5103 68.6579 19.127 68.0648 18.993C67.4707 18.8599 66.7525 18.8274 65.9112 18.8974H65.9092ZM29.1252 5.31961L27.6602 5.45264C27.1331 5.49994 26.8967 5.8803 26.8967 6.23504V17.3365C26.8967 17.776 27.2041 18.045 27.6602 18.0036L29.1252 17.8706C29.5803 17.8292 29.8877 17.505 29.8877 17.0655V5.96406C29.8877 5.60932 29.6522 5.27231 29.1252 5.31961ZM85.2662 18.0913C85.1342 18.0913 85.1293 18.1859 85.1293 18.1859C85.1293 18.1977 85.1303 18.2086 85.1303 18.2204C85.1303 18.5485 85.014 18.853 84.7825 19.1349C84.55 19.4167 84.2613 19.5724 83.9145 19.6009C83.5993 19.6266 83.3589 19.5684 83.1954 19.4236C83.0318 19.2797 82.8535 19.0363 82.6614 18.6934C82.4141 18.2007 82.1166 17.8243 81.7708 17.5661C81.424 17.3069 80.8674 17.2094 80.0999 17.2725C79.3886 17.3316 78.8142 17.5346 78.3788 17.8834C77.9423 18.2322 77.7246 18.6254 77.7246 19.0649C77.7246 19.3369 77.7985 19.5655 77.9472 19.7517C78.096 19.937 78.2999 20.0907 78.56 20.2109C78.8201 20.3321 79.0832 20.4218 79.3492 20.4799C79.6152 20.5381 80.0546 20.6198 80.6674 20.7233C81.4348 20.8396 82.1294 20.9795 82.751 21.1451C83.3727 21.3106 83.9017 21.5294 84.3382 21.8023C84.7746 22.0753 85.1145 22.4389 85.3588 22.8912C85.3726 22.9168 85.3844 22.9434 85.3973 22.97V18.1869C85.3973 18.1869 85.3795 18.0923 85.2672 18.0923L85.2662 18.0913ZM83.2279 28.5621C82.4111 29.0006 81.4427 29.2657 80.3225 29.3583C78.9797 29.4687 77.8724 29.3071 77.0005 28.8715C76.3818 28.5582 75.8793 28.1118 75.4922 27.5353C75.105 26.9579 74.9119 26.3815 74.9119 25.807C74.9119 25.4729 75.0281 25.1773 75.2596 24.9201C75.4922 24.6629 75.7867 24.5191 76.1463 24.4895C76.437 24.4658 76.6833 24.5378 76.8842 24.7073C77.0852 24.8758 77.2566 25.1369 77.3995 25.4907C77.5729 25.9094 77.7601 26.2553 77.961 26.5293C78.162 26.8032 78.4448 27.02 78.8103 27.1776C79.1758 27.3363 79.6546 27.3905 80.2487 27.3422C81.0654 27.2752 81.7294 27.0298 82.2397 26.6071C82.75 26.1844 83.0052 25.6887 83.0052 25.1201C83.0052 24.6688 82.8673 24.3141 82.5924 24.0549C82.3176 23.7968 81.9609 23.6105 81.5255 23.4982C81.089 23.3858 80.5058 23.2765 79.7758 23.1691C78.7975 23.0213 77.9798 22.8212 77.3207 22.569C76.6616 22.3167 76.1384 21.9432 75.7522 21.4466C75.3651 20.95 75.172 20.3085 75.172 19.5231C75.172 18.7377 75.3759 18.0933 75.7848 17.4784C76.1926 16.8635 76.7837 16.3679 77.5571 15.9914C77.7739 15.886 78.0024 15.7934 78.2398 15.7106L67.9801 16.6182C68.3554 16.63 68.7022 16.6635 69.0185 16.7196C69.6864 16.8379 70.2933 17.1118 70.8371 17.5434C72.2538 18.6382 72.9622 20.4228 72.9622 22.8961C72.9622 23.712 72.8913 24.4639 72.7484 25.1487C72.6055 25.8346 72.3868 26.4603 72.0893 27.0259C71.7918 27.5915 71.4115 28.1069 70.9475 28.572C70.582 28.9297 70.183 29.2253 69.7505 29.4588C69.317 29.6924 68.852 29.8697 68.3535 29.9919C67.855 30.1131 67.2934 30.1999 66.6688 30.2511L63.0768 30.5477C62.5753 30.5891 62.198 30.5447 61.9448 30.4137C61.6906 30.2836 61.5251 30.0836 61.4483 29.8146C61.3704 29.5456 61.332 29.1918 61.332 28.7523V18.7811C61.332 18.1879 61.465 17.7464 61.731 17.4587C61.8601 17.3198 62.0285 17.2084 62.2335 17.1246L57.9242 17.506C57.9341 17.5158 57.944 17.5237 57.9538 17.5336C58.1824 17.778 58.2966 18.1623 58.2966 18.6875V29.383C58.2966 30.5763 57.8011 31.2138 56.812 31.2956C56.5647 31.3163 56.342 31.2986 56.144 31.2444C55.946 31.1892 55.7608 31.0916 55.5874 30.9517C55.414 30.8118 55.2534 30.6443 55.1046 30.4492C54.9559 30.2541 54.8081 30.055 54.6593 29.85L49.49 22.3551V30.323C49.49 30.8423 49.3698 31.2454 49.1285 31.5311C48.8871 31.8169 48.5777 31.9755 48.2004 32.0071C47.8103 32.0396 47.498 31.9302 47.2635 31.6809C47.028 31.4316 46.9108 31.0503 46.9108 30.5369V20.0454C46.9108 19.6 46.9601 19.2472 47.0596 18.9851C47.1443 18.7781 47.2684 18.5949 47.433 18.4342L39.7968 19.1092C39.8982 19.193 39.9889 19.2886 40.0667 19.395C40.2243 19.6108 40.3573 19.8453 40.4657 20.0996C40.5741 20.3538 40.712 20.6928 40.8785 21.1185L44.4331 29.5997C44.7119 30.2442 44.8508 30.7182 44.8508 31.0217C44.8508 31.3252 44.7188 31.6366 44.4567 31.9213C44.1937 32.2061 43.8764 32.3638 43.505 32.3943C43.2883 32.4121 43.103 32.3884 42.9484 32.3244C42.7937 32.2593 42.6637 32.1657 42.5582 32.0416C42.4528 31.9174 42.3405 31.7223 42.2193 31.4572C42.0991 31.1922 41.9947 30.9576 41.908 30.7546L41.2588 29.1011L35.7279 29.5574L35.0777 31.3547C34.8235 32.0563 34.6078 32.5333 34.4284 32.7855C34.2491 33.0378 33.9556 33.1817 33.5467 33.2152C33.1999 33.2437 32.8935 33.1422 32.6275 32.9107C32.3615 32.6791 32.2285 32.4022 32.2285 32.081C32.2285 31.8957 32.2591 31.7016 32.3211 31.4976C32.3832 31.2946 32.4847 31.0108 32.6275 30.6472L36.1082 21.5294C36.2067 21.2672 36.3259 20.9529 36.4658 20.5863C36.6047 20.2198 36.7535 19.9123 36.9111 19.664C36.985 19.5477 37.0707 19.4403 37.1673 19.3408L28.2385 20.1301C28.3144 20.1518 28.3892 20.1764 28.4612 20.203C28.8877 20.3469 29.2651 20.5725 29.5931 20.879C29.9212 21.1855 30.1705 21.554 30.3399 21.9817C30.5103 22.4093 30.5951 22.8715 30.5951 23.3661C30.5951 24.3801 30.3084 25.2138 29.737 25.8671C29.1646 26.5204 28.2966 27.022 27.1341 27.3708C27.6228 27.5905 28.0897 27.9354 28.535 28.4055C28.9804 28.8755 29.3784 29.383 29.7281 29.9259C30.0779 30.4689 30.3498 30.9635 30.5448 31.408C30.7399 31.8524 30.8374 32.1618 30.8374 32.3342C30.8374 32.5067 30.7803 32.6959 30.666 32.8821C30.5517 33.0674 30.3951 33.2201 30.1971 33.3383C29.999 33.4566 29.7705 33.5266 29.5104 33.5482C29.201 33.5738 28.9409 33.5226 28.7311 33.3945C28.5203 33.2664 28.34 33.0979 28.1883 32.887C28.0365 32.6771 27.8306 32.3658 27.5705 31.9548L26.4661 30.2097C26.0701 29.5682 25.7154 29.0844 25.4031 28.7572C25.0908 28.4301 24.7736 28.2153 24.4514 28.1118C24.1293 28.0083 23.7244 27.9768 23.2357 28.0172L22.2702 28.097V32.4663C22.2702 33.0417 22.1431 33.4753 21.8899 33.768C21.6358 34.0606 21.3047 34.2242 20.8969 34.2577C20.4575 34.2942 20.1176 34.1799 19.8762 33.9148C19.6348 33.6507 19.5146 33.2428 19.5146 32.6929V22.23C19.5146 21.6368 19.6476 21.1953 19.9136 20.9076C19.9284 20.8918 19.9462 20.877 19.9619 20.8613L14.5148 21.3431C14.6458 21.3904 14.7719 21.4446 14.8921 21.5077C15.2143 21.6732 15.498 21.892 15.7463 22.1649C15.9936 22.4379 16.1827 22.7473 16.3128 23.0922C16.4428 23.4371 16.5078 23.8076 16.5078 24.2027C16.5078 25.5636 15.8271 26.615 14.4665 27.358C16.2546 27.7797 17.1482 28.8124 17.1482 30.457C17.1482 31.2178 16.9531 31.9184 16.563 32.5599C16.1729 33.2014 15.6478 33.6941 14.9857 34.0399C14.571 34.2479 14.0951 34.4085 13.5562 34.5248C13.0183 34.64 12.3897 34.7277 11.6725 34.7869L7.51404 35.1298C6.91406 35.1791 6.48551 35.0805 6.22837 34.8322C6.20374 34.8086 6.1801 34.7819 6.15842 34.7553V35.2934C6.15842 35.2934 6.20965 35.3929 6.31014 35.4185C9.71989 36.3123 69.5475 51.9889 69.5475 51.9889L85.3973 27.0229V26.2573C85.3106 26.4642 85.2101 26.6662 85.0899 26.8613C84.6662 27.5521 84.0456 28.1167 83.2288 28.5542L83.2279 28.5621ZM67.9801 16.6191C67.9732 16.6191 67.9702 16.6191 67.9653 16.6191C67.9742 16.6191 67.9801 16.6191 67.9801 16.6191ZM85.4179 26.211C85.4101 26.2297 85.4032 26.2465 85.3992 26.2563C85.4061 26.2396 85.412 26.2248 85.4179 26.211ZM62.395 17.0714C62.3399 17.0882 62.2867 17.1069 62.2364 17.1276L62.395 17.1138V17.0714ZM90.7025 0.840005C89.8552 0.187674 88.8149 -0.0852807 87.61 0.0231128C86.1007 0.160083 84.9648 0.357162 84.2131 0.617306C83.6771 0.822268 83.619 1.22234 83.619 1.38493V2.37722C83.619 2.56937 83.6702 2.72901 83.7697 2.84923C83.8968 3.00196 84.0869 3.07488 84.3057 3.05419C84.3421 3.05123 84.4298 3.03547 84.4653 3.02463C85.0475 2.84726 86.1056 2.68959 87.611 2.55361C87.9991 2.51813 88.3321 2.63244 88.6119 2.90441C88.8927 3.1616 89.0336 3.48086 89.0336 3.85137V4.50765L85.6741 4.81213C84.4672 4.92151 83.419 5.39155 82.5569 6.21238C81.6969 7.02927 81.2604 8.02354 81.2604 9.16857C81.2604 10.3136 81.7048 11.2586 82.5826 11.9346C83.4288 12.583 84.4682 12.8589 85.6741 12.7495L91.2611 12.244C91.6956 12.2046 92 11.8735 92 11.4409V3.58433C92 2.44127 91.5517 1.49234 90.7035 0.840991L90.7025 0.840005ZM89.0326 9.89382L85.6731 10.1983C85.2702 10.2348 84.9254 10.1254 84.6475 9.86918C84.3677 9.61199 84.2249 9.2878 84.2249 8.90054C84.2249 8.51328 84.3667 8.18416 84.6475 7.87868C84.9254 7.5742 85.2702 7.40175 85.6731 7.36529L89.0326 7.06081V9.89382ZM13.6301 29.0558C13.1474 28.7868 12.4262 28.6912 11.4676 28.77L8.59972 29.0065V32.9767L11.5602 32.7323C13.4222 32.5786 14.3542 31.8307 14.3542 30.4886C14.3542 29.8018 14.1128 29.3248 13.6301 29.0548V29.0558ZM22.2702 26.1252L24.7391 25.9213C25.4012 25.8671 25.9578 25.7636 26.41 25.6119C26.8612 25.4601 27.207 25.2374 27.4444 24.9418C27.6829 24.6472 27.8021 24.2579 27.8021 23.7761C27.8021 23.3987 27.7065 23.0745 27.5144 22.8025C27.3223 22.5305 27.0563 22.3384 26.7164 22.2241C26.3942 22.1147 25.7607 22.0989 24.814 22.1768L22.2712 22.3867V26.1252H22.2702ZM14.5148 21.348C14.5089 21.3461 14.5059 21.3451 14.501 21.3431C14.5089 21.3461 14.5148 21.348 14.5148 21.348ZM14.2242 19.2196L15.6645 19.0895C16.1207 19.0481 16.4271 18.7239 16.4271 18.2845V10.4269C16.4271 10.0594 16.5719 9.70364 16.8497 9.3824C17.1275 9.07791 17.4723 8.90547 17.8753 8.86901L19.8132 8.69361C20.2013 8.65813 20.5333 8.77244 20.8131 9.04441C21.0929 9.30159 21.2348 9.62086 21.2348 9.99137V17.8489C21.2348 18.2884 21.5412 18.5574 21.9973 18.516L23.4633 18.383C23.8978 18.3436 24.2012 18.0125 24.2012 17.5799V9.72236C24.2012 8.55269 23.7539 7.62839 22.8791 6.98099C22.0328 6.32866 21.0013 6.05472 19.8122 6.16213L17.8743 6.33753C16.6812 6.44592 15.634 6.90708 14.7581 7.71609C13.9099 8.52018 13.4616 9.54991 13.4616 10.6949V18.5525C13.4616 18.992 13.769 19.261 14.2252 19.2196H14.2242ZM8.59972 27.0318L11.1238 26.8239C11.8105 26.7667 12.3415 26.6583 12.7158 26.4977C13.0902 26.3371 13.3759 26.0661 13.5739 25.6848C13.7286 25.4118 13.8065 25.1152 13.8065 24.794C13.8065 24.1072 13.5621 23.6716 13.0735 23.4864C12.5848 23.3011 11.839 23.2499 10.8371 23.3326L8.60071 23.5169V27.0328L8.59972 27.0318ZM10.7405 18.7988V10.9413C10.7405 9.79823 10.2923 8.8493 9.44305 8.19795C8.59578 7.54562 7.55542 7.27267 6.35152 7.38106C4.84221 7.51803 3.7053 7.71511 2.9536 7.97525C2.41766 8.18021 2.36052 8.58029 2.36052 8.74288V9.73517C2.36052 9.92732 2.41174 10.086 2.51026 10.2072C2.63735 10.3599 2.8275 10.4328 3.04621 10.4121C3.08266 10.4092 3.17034 10.3934 3.20482 10.3826C3.78806 10.2052 4.84516 10.0475 6.35053 9.91155C6.73771 9.87608 7.07169 9.99039 7.35149 10.2624C7.63128 10.5195 7.77216 10.8388 7.77216 11.2093V11.8656L4.41365 12.1701C3.20679 12.2795 2.15855 12.7495 1.29651 13.5693C0.436439 14.3882 0 15.3825 0 16.5265C0 17.6706 0.445306 18.6175 1.32212 19.2925C2.16742 19.9409 3.20778 20.2168 4.41365 20.1074L10.0007 19.6019C10.4361 19.5625 10.7396 19.2314 10.7396 18.7988H10.7405ZM7.77315 17.2518L4.41464 17.5563C4.01169 17.5927 3.66688 17.4833 3.38905 17.2271C3.10827 16.9699 2.96739 16.6457 2.96739 16.2585C2.96739 15.8712 3.10827 15.5421 3.38905 15.2366C3.66688 14.9321 4.01169 14.7597 4.41464 14.7232L7.77315 14.4188V17.2518Z" fill="white"/>
</svg>
