<svg xmlns="http://www.w3.org/2000/svg" viewBox="0 0 420 260" width="420" height="260">
 <defs>
 <linearGradient id="gold" x1="0" y1="0" x2="0" y2="1">
 <stop offset="0%" stop-color="#E8C56D"/>
 <stop offset="100%" stop-color="#C49530"/>
 </linearGradient>
 </defs>

 <g transform="translate(210, 0)">
 <rect x="-82" y="52" width="32" height="32" fill="#3D4F5E" rx="1"/>
 <rect x="-84" y="49" width="36" height="4" fill="#3D4F5E" rx="1"/>
 <rect x="-76" y="56" width="5" height="6" rx="0.5" fill="#A8BCC8" opacity="0.45"/>
 <rect x="-67" y="56" width="5" height="6" rx="0.5" fill="#A8BCC8" opacity="0.45"/>
 <rect x="-58" y="56" width="5" height="6" rx="0.5" fill="#A8BCC8" opacity="0.45"/>
 <rect x="-76" y="66" width="5" height="6" rx="0.5" fill="#A8BCC8" opacity="0.35"/>
 <rect x="-67" y="66" width="5" height="6" rx="0.5" fill="#A8BCC8" opacity="0.35"/>
 <rect x="-58" y="66" width="5" height="6" rx="0.5" fill="#A8BCC8" opacity="0.35"/>
 <rect x="-48" y="34" width="36" height="50" fill="#1B2A4A" rx="1"/>
 <rect x="-50" y="31" width="40" height="4" fill="#1B2A4A" rx="1"/>
 <rect x="-43" y="38" width="5" height="6" rx="0.5" fill="#8A9BBF" opacity="0.4"/>
 <rect x="-34" y="38" width="5" height="6" rx="0.5" fill="#8A9BBF" opacity="0.4"/>
 <rect x="-25" y="38" width="5" height="6" rx="0.5" fill="#8A9BBF" opacity="0.4"/>
 <rect x="-16" y="38" width="5" height="6" rx="0.5" fill="#8A9BBF" opacity="0.4"/>
 <rect x="-43" y="48" width="5" height="6" rx="0.5" fill="#8A9BBF" opacity="0.35"/>
 <rect x="-34" y="48" width="5" height="6" rx="0.5" fill="#8A9BBF" opacity="0.35"/>
 <rect x="-25" y="48" width="5" height="6" rx="0.5" fill="#8A9BBF" opacity="0.35"/>
 <rect x="-16" y="48" width="5" height="6" rx="0.5" fill="#8A9BBF" opacity="0.35"/>
 <rect x="-43" y="58" width="5" height="6" rx="0.5" fill="#8A9BBF" opacity="0.3"/>
 <rect x="-34" y="58" width="5" height="6" rx="0.5" fill="#8A9BBF" opacity="0.3"/>
 <rect x="-25" y="58" width="5" height="6" rx="0.5" fill="#8A9BBF" opacity="0.3"/>
 <rect x="-16" y="58" width="5" height="6" rx="0.5" fill="#8A9BBF" opacity="0.3"/>
 <rect x="-43" y="68" width="5" height="6" rx="0.5" fill="#8A9BBF" opacity="0.22"/>
 <rect x="-34" y="68" width="5" height="6" rx="0.5" fill="#8A9BBF" opacity="0.22"/>
 <rect x="-25" y="68" width="5" height="6" rx="0.5" fill="#8A9BBF" opacity="0.22"/>
 <rect x="-16" y="68" width="5" height="6" rx="0.5" fill="#8A9BBF" opacity="0.22"/>
 <rect x="-8" y="42" width="30" height="42" fill="#2C3E56" rx="1"/>
 <rect x="-10" y="39" width="34" height="4" fill="#2C3E56" rx="1"/>
 <rect x="-3" y="46" width="5" height="6" rx="0.5" fill="#95AABB" opacity="0.45"/>
 <rect x="7" y="46" width="5" height="6" rx="0.5" fill="#95AABB" opacity="0.45"/>
 <rect x="16" y="46" width="5" height="6" rx="0.5" fill="#95AABB" opacity="0.45"/>
 <rect x="-3" y="56" width="5" height="6" rx="0.5" fill="#95AABB" opacity="0.38"/>
 <rect x="7" y="56" width="5" height="6" rx="0.5" fill="#95AABB" opacity="0.38"/>
 <rect x="16" y="56" width="5" height="6" rx="0.5" fill="#95AABB" opacity="0.38"/>
 <rect x="-3" y="66" width="5" height="6" rx="0.5" fill="#95AABB" opacity="0.3"/>
 <rect x="7" y="66" width="5" height="6" rx="0.5" fill="#95AABB" opacity="0.3"/>
 <rect x="16" y="66" width="5" height="6" rx="0.5" fill="#95AABB" opacity="0.3"/>
 <rect x="26" y="20" width="40" height="64" fill="#1F3054" rx="1"/>
 <rect x="24" y="17" width="44" height="4" fill="#1F3054" rx="1"/>
 <path d="M34,17 Q46,-2 58,17" fill="url(#gold)"/>
 <rect x="42" y="-5" width="8" height="8" fill="url(#gold)" rx="1"/>
 <line x1="46" y1="-5" x2="46" y2="-12" stroke="#C49530" stroke-width="1.8" stroke-linecap="round"/>
 <rect x="30" y="25" width="2.5" height="57" fill="#2A3F62" rx="0.5"/>
 <rect x="38" y="25" width="2.5" height="57" fill="#2A3F62" rx="0.5"/>
 <rect x="46" y="25" width="2.5" height="57" fill="#2A3F62" rx="0.5"/>
 <rect x="54" y="25" width="2.5" height="57" fill="#2A3F62" rx="0.5"/>
 <rect x="61" y="25" width="2.5" height="57" fill="#2A3F62" rx="0.5"/>
 <path d="M41,82 L41,70 Q46,65 51,70 L51,82 Z" fill="#2A3F62"/>
 <rect x="70" y="54" width="26" height="30" fill="#354B58" rx="1"/>
 <rect x="68" y="51" width="30" height="4" fill="#354B58" rx="1"/>
 <rect x="-92" y="84" width="190" height="5" fill="#FFFFFF" rx="0.5"/>
 <rect x="-72" y="89" width="3.5" height="18" fill="#FFFFFF" rx="0.5"/>
 <rect x="-18" y="89" width="3.5" height="22" fill="#FFFFFF" rx="0.5"/>
 <rect x="36" y="89" width="3.5" height="18" fill="#FFFFFF" rx="0.5"/>
 <path d="M-90,84 Q-64,50 -38,84" fill="none" stroke="#FFFFFF" stroke-width="3" stroke-linecap="round"/>
 <path d="M-38,84 Q-12,46 14,84" fill="none" stroke="#FFFFFF" stroke-width="3" stroke-linecap="round"/>
 <path d="M14,84 Q42,46 70,84" fill="none" stroke="#FFFFFF" stroke-width="3" stroke-linecap="round"/>
 <line x1="-96" y1="112" x2="100" y2="112" stroke="#8A9BBF" stroke-width="0.8" opacity="0.15"/>
 </g>
 <text x="210" y="158" text-anchor="middle" font-family="'Gill Sans', 'Century Gothic', 'Trebuchet MS', 'Helvetica Neue', sans-serif" font-size="27" font-weight="600" fill="#1B2A4A" letter-spacing="4.5">CALEDONIA REGIONAL</text>
 <text x="210" y="180" text-anchor="middle" font-family="'Gill Sans', 'Century Gothic', 'Trebuchet MS', 'Helvetica Neue', sans-serif" font-size="13.5" font-weight="300" fill="#3A4F6F" letter-spacing="6.5">CHAMBER OF COMMERCE</text>
</svg>